<?xml version="1.0" encoding="UTF-8"?>
<svg width="1084px" height="871px" viewBox="0 0 1084 871" version="1.1" xmlns="http://www.w3.org/2000/svg" xmlns:xlink="http://www.w3.org/1999/xlink">
    <!-- Generator: Sketch 58 (84663) - https://sketch.com -->
    <title>Combined Shape</title>
    <desc>Created with Sketch.</desc>
    <defs>
        <path d="M1084.00563,287.929314 L1083.99417,366.911623 C1006.47611,435.615379 966.262606,542.339905 987.454524,651.362875 C1000.68275,719.416199 1035.75926,777.676348 1083.99445,820.283537 L1083.99719,870.830002 C1016.06053,821.713515 965.918004,747.678874 948.661803,658.903416 C932.377405,575.127452 948.164597,492.551946 987.467614,423.85826 C860.008648,486.019844 716.813338,459.487357 665.502774,361.271008 L663.499612,357.304163 L699.019308,339.982527 C737.697856,419.273965 858.76013,442.670466 970.086815,388.380576 C1020.73065,363.683461 1059.94437,327.50108 1084.00563,287.929314 Z M576.213475,88.2292589 C608.613586,154.649832 686.157514,162.105296 816.643546,104.382787 L829.231103,98.6881456 C941.924295,46.6020781 1027.94448,36.2760778 1084.00363,70.3296983 L1084.0034,122.243629 C1044.81939,76.9400247 969.345857,78.6330057 852.14526,131.654643 L845.811371,134.551303 C690.754136,206.217759 586.193337,198.825472 540.69378,105.550895 C535.346985,94.5899073 531.363665,83.2749806 528.674399,71.7311355 C480.926843,141.051172 407.7117,192.909676 319.351343,212.023975 L312.154005,213.501727 L50.6910644,264.324974 L-0.000269735332,3.54050113 L0,0 L39.5697303,-0.000498868097 L81.9449435,218.000452 L304.615163,174.717746 C405.587794,155.090655 485.010518,87.3992167 523.749757,0.00323111271 L568.110971,0.000395963126 C560.860399,30.6826784 563.040581,61.2246844 576.213475,88.2292589 Z" id="path-1"></path>
    </defs>
    <g id="About" stroke="none" stroke-width="1" fill="none" fill-rule="evenodd">
        <g transform="translate(-356.000000, 0.000000)" id="Rectangle">
            <g transform="translate(356.000000, 0.000000)">
                <mask id="mask-2" fill="white">
                    <use xlink:href="#path-1"></use>
                </mask>
                <use id="Combined-Shape" fill="#000000" fill-rule="nonzero" xlink:href="#path-1"></use>
            </g>
        </g>
    </g>
</svg>