<svg version="1.1" id="Capa_1" xmlns="http://www.w3.org/2000/svg" x="0" y="0" viewBox="0 0 1440 421" xml:space="preserve"><style>.st0{fill:none}</style><path class="st0" d="M826.9 376.7c-4.6-44.1-44.2-76.1-88.4-71.5-44.2 4.6-76.2 44.2-71.6 88.3 1 9.9 3.8 19.1 8 27.5h82.3c8.8-3.3 17.7-4.5 26.7-3.4 4.3.5 8.1 1.6 11.8 3.4h23c6.8-13.3 9.9-28.5 8.2-44.3zM588.7 406.2l-1.7.6c-36.7 13.2-62.2 11.8-74.9-5.1.5 2.5.9 5 1.1 7.6.4 4 .6 7.9.5 11.8h141.6c-.3-1.9-.9-3.8-1.6-5.6-7.2-18.7-28-22.3-65-9.3zM1346.1 322.1c-4.6-44.1-44.2-76.1-88.4-71.5-44.2 4.6-76.2 44.2-71.6 88.3s44.2 76.1 88.4 71.5c19.7-2.1 37-11.1 49.7-24.3l-.9-.8c-8.9-7.9-14.2-10.9-21.3-11.8-13.9-1.7-27.5 3.1-41.1 14.7l-1.4 1.2-7-7.9c16.2-14.3 33.2-20.6 50.7-18.4 10 1.2 16.7 5.1 27.7 15 11.4-15.6 17.3-35.3 15.2-56zM220.4 359.7c-34.9 3.7-62.2 29.1-69.9 61.3H307c-9.1-38.8-45.9-65.6-86.6-61.3zM502.8 410.3c-4.6-44.1-44.2-76.1-88.4-71.5l-59.9 6.3 8 75.8h140.7c.1-3.4-.1-7-.4-10.6zM1172.8 360.8c-7.1-18.6-28-22.2-65-9.2l-1.7.6c-36.7 13.2-62.2 11.8-74.9-5.1.5 2.5.9 5 1.1 7.6 2.6 24.8-5 48.3-19.5 66.3h48.8c-3.6-3.8-6.5-8.1-8.5-13l-.4-1.1 9.8-3.8c2.9 7.6 8.7 13.7 16.3 17.9h57.3c28.8-12.4 44.9-39 36.7-60.2z"/><path class="st0" d="M1185.5 372.6c-.1 17.7-10.7 35.7-28.2 48.4h101.1c-31.3-2.6-58.7-21.3-72.9-48.4zM33.2 147.6c49.9-5.2 94.7 30.9 99.9 80.8 2.5 23.8-4.5 46.5-17.9 64.2l.8.8c10.5 9.6 16 13 23.7 14 13 1.6 23.9-4.8 33.2-19.9l-16.1-153.2 70.4-7.4c38.7-4.1 74.3 16.8 90.8 49.6-.7-24.3 18.8-49.4 48.6-60.9 35.2-13.5 72.4-3.2 83.7 24l.4 1.1-9.8 3.8c-8.4-21.9-39.9-30.8-70.6-19.1-30.7 11.8-48.1 39.5-39.7 61.4 7 18.3 27.4 22.1 63.3 9.8l3.5-1.2c35.9-12.9 61-11.9 74 4-.4-2.1-.7-4.2-.9-6.4-5.2-49.9 31-94.6 80.9-99.8s94.7 30.9 99.9 80.8c2.5 23.8-4.5 46.5-17.9 64.2l.8.8c10.5 9.6 16 13 23.7 14 13.2 1.6 24.3-5 33.6-20.7l.4-.7-15.9-152 70.4-7.4c38.7-4.1 74.3 16.8 90.8 49.6-.7-24.3 18.8-49.4 48.6-60.9 35.2-13.5 72.4-3.2 83.7 24l.4 1.1-9.8 3.8c-8.4-21.9-39.9-30.8-70.6-19.1-30.7 11.8-48.1 39.5-39.7 61.4 7 18.3 27.4 22.1 63.3 9.8l3.5-1.2c35.9-12.9 61-11.9 74 4-.4-2.1-.7-4.2-.9-6.4-5.2-49.9 31-94.6 80.9-99.8 49.9-5.2 94.7 30.9 99.9 80.8 2.5 23.8-4.5 46.5-17.9 64.2l.8.8c10.5 9.6 16 13 23.7 14 13 1.6 23.9-4.8 33.2-19.9l-16.1-153.2 70.4-7.4c38.7-4.1 74.3 16.8 90.8 49.6-.7-24.3 18.8-49.4 48.6-60.9 12.2-4.7 24.6-6.5 36.2-5.7V0H0v157.7c10-5.3 21.2-8.9 33.2-10.1zM1021.9 355.8c-4.6-44.1-44.2-76.1-88.4-71.5l-59.9 6.3L887.3 421h111.4c16.6-16.5 25.8-40.1 23.2-65.2zM1397.9 395.5c-10 11.4-22.1 16.5-36.1 14.8-10.7-1.3-17.6-5.7-30-17.1-14.4 15-33.9 25.3-56.3 27.6-.7.1-1.4.1-2.1.2H1440v-17.9l-40.8 4.3-1.3-11.9zM1408.5 395.9l31.5-3.3V231.1l-48.3 5z"/><path class="st0" d="M1265.6 28.2l-59.9 6.3 16.8 159.8 59.9-6.3c44.2-4.6 76.2-44.2 71.6-88.3-4.7-44.1-44.2-76.1-88.4-71.5zM1407.6 16.3c-30.7 11.8-48.1 39.5-39.7 61.4 7 18.3 27.4 22.1 63.3 9.8l3.5-1.2c1.8-.7 3.6-1.3 5.4-1.9V11.3c-10.3-.8-21.4.7-32.5 5zM228.3 137.2l-59.9 6.3 16.8 159.8 59.9-6.3c44.2-4.6 76.2-44.2 71.6-88.3-4.7-44.1-44.2-76.1-88.4-71.5z"/><path class="st0" d="M1438.2 96.1c-36.7 13.2-62.2 11.8-74.9-5.1.5 2.5.9 5 1.1 7.6 5.2 49.4-30.3 93.7-79.4 99.6l-1.5.2-70.4 7.4-1.2-11.9c-10 11.4-22.1 16.5-36.1 14.8-10.7-1.3-17.6-5.7-30-17.1-14.4 15-33.9 25.3-56.3 27.6-38.2 4-73.4-16.2-90.1-48.3-.1 23.8-19.4 48.2-48.6 59.4-35.2 13.5-72.4 3.2-83.7-24l-.4-1.1 9.8-3.8c8.4 21.9 39.9 30.8 70.6 19.1 30.7-11.8 48.1-39.5 39.7-61.4-7.1-18.6-28-22.2-65-9.2l-1.7.6c-36.7 13.2-62.2 11.8-74.9-5.1.5 2.5.9 5 1.1 7.6 5.2 49.4-30.3 93.7-79.4 99.6l-1.5.2-70.4 7.4-1.3-12.8c-10.2 12.2-22.6 17.6-37 15.8-10.7-1.3-17.6-5.7-30-17.1-14.4 15-33.9 25.3-56.3 27.6-38.2 4-73.4-16.2-90.1-48.3-.1 23.8-19.4 48.2-48.6 59.4-35.2 13.5-72.4 3.2-83.7-24l-.4-1.1 9.8-3.8c8.4 21.9 39.9 30.8 70.6 19.1 30.7-11.8 48.1-39.5 39.7-61.4-7.1-18.6-28-22.2-65-9.2l-1.7.6c-36.7 13.2-62.2 11.8-74.9-5.1.5 2.5.9 5 1.1 7.6 5.2 49.4-30.3 93.7-79.4 99.6l-1.5.2-70.4 7.4-1.3-11.9c-10 11.4-22.1 16.5-36.1 14.8-10.7-1.3-17.6-5.7-30-17.1-14.4 15-33.9 25.3-56.3 27.6-18.7 2-36.7-1.9-52.2-10.1v77.7c8.4-10.1 20.3-18.7 34.5-24.1 35.2-13.5 72.4-3.2 83.7 24l.4 1.1-9.8 3.8c-8.4-21.9-39.9-30.8-70.6-19.1-18.5 7.1-32.1 20-38.3 33.8v5.7h139.8c7.9-37.6 39.2-67.5 79.5-71.8 46.9-4.9 89.2 26.6 98.5 71.8h34.1l-9-85.2 70.4-7.4c38.7-4.1 74.3 16.8 90.8 49.6-.7-24.3 18.8-49.4 48.6-60.9 35.2-13.5 72.4-3.2 83.7 24l.4 1.1-9.7 3.9c-8.4-21.9-39.9-30.8-70.6-19.1-30.7 11.8-48.1 39.5-39.7 61.4 7 18.3 27.4 22.1 63.3 9.8l3.5-1.2c35.9-12.9 61-11.9 74 4-.4-2.1-.7-4.2-.9-6.4-5.2-49.9 31-94.6 80.9-99.8s94.7 30.9 99.9 80.8c1.7 16.1-.9 31.6-6.9 45.4h46.3l-14.7-139.7 70.4-7.4c38.7-4.1 74.3 16.8 90.8 49.6-.7-24.3 18.8-49.4 48.6-60.9 35.2-13.5 72.4-3.2 83.7 24l.4 1.1-9.8 3.8c-8.4-21.9-39.9-30.8-70.6-19.1-30.7 11.8-48.1 39.5-39.7 61.4 7 18.3 27.4 22.1 63.3 9.8l3.5-1.2c35.9-12.9 61-11.9 74 4-.4-2.1-.7-4.2-.9-6.4-5.2-49.9 31-94.6 80.9-99.8 49.9-5.2 94.7 30.9 99.9 80.8 2.5 23.8-4.5 46.5-17.9 64.2l.8.8c10.5 9.6 16 13 23.7 14 13 1.6 23.9-4.8 33.2-19.9l-16.1-153.2 59.8-6.3v-38.8c-24.8.7-46.6-10.2-54.8-29.8l-.4-1.1 9.8-3.8c6.1 15.8 24.2 24.9 45.5 24.2V95.5h-.1l-1.9.6z"/><path class="st0" d="M640.8 175c-4.6-44.1-44.2-76.1-88.4-71.5-44.2 4.6-76.2 44.2-71.6 88.3s44.2 76.1 88.4 71.5c19.7-2.1 37-11.1 49.7-24.3l-.9-.8c-8.9-7.9-14.2-10.9-21.3-11.8-13.9-1.7-27.5 3.1-41.1 14.7l-1.4 1.2-7-7.9c16.2-14.3 33.2-20.6 50.7-18.4 10 1.2 16.7 5.1 27.7 15 11.5-15.6 17.4-35.3 15.2-56zM51.1 317.8c19.7-2.1 37-11.1 49.7-24.3l-.9-.8c-8.9-7.9-14.2-10.9-21.3-11.8-13.9-1.7-27.5 3.1-41.1 14.7l-1.4 1.2-7-7.9c16.2-14.3 33.2-20.6 50.7-18.4 10 1.2 16.7 5.1 27.7 15 11.4-15.5 17.3-35.2 15.2-55.9-4.6-44.1-44.2-76.1-88.4-71.5-12.6 1.3-24.2 5.5-34.3 11.8V306c14.7 9.2 32.5 13.7 51.1 11.8zM1160 120.5c-4.6-44.1-44.2-76.1-88.4-71.5-44.2 4.6-76.2 44.2-71.6 88.3 4.6 44.1 44.2 76.1 88.4 71.5 19.7-2.1 37-11.1 49.7-24.3l-.9-.8c-8.9-7.9-14.2-10.9-21.3-11.8-13.9-1.7-27.5 3.1-41.1 14.7l-1.4 1.2-7-7.9c16.2-14.3 33.2-20.6 50.7-18.4 10 1.2 16.7 5.1 27.7 15 11.4-15.7 17.3-35.3 15.2-56zM747.4 82.7L687.5 89l16.8 159.8 59.9-6.3c44.2-4.6 76.2-44.2 71.6-88.3S791.6 78 747.4 82.7z"/><path d="M1403.8 6.5c-29.8 11.4-49.3 36.6-48.6 60.9-16.5-32.8-52.1-53.6-90.8-49.6l-70.4 7.4 16.1 153.2c-9.2 15.2-20.1 21.5-33.2 19.9-7.7-.9-13.2-4.4-23.7-14l-.8-.8c13.4-17.7 20.4-40.4 17.9-64.2-5.2-49.9-50-86.1-99.9-80.8-49.9 5.2-86.2 49.9-80.9 99.8.2 2.1.5 4.3.9 6.4-13-15.9-38.1-16.9-74-4l-3.5 1.2c-35.9 12.2-56.2 8.5-63.3-9.8-8.4-21.9 9-49.6 39.7-61.4 30.7-11.8 62.2-2.8 70.6 19.1l9.8-3.8-.4-1.1c-11.3-27.2-48.6-37.5-83.7-24-29.8 11.4-49.3 36.6-48.6 60.9-16.5-32.8-52.1-53.6-90.8-49.6L676 79.6l16 151.9-.4.7c-9.3 15.7-20.4 22.3-33.6 20.7-7.7-.9-13.2-4.4-23.7-14l-.8-.8c13.4-17.7 20.4-40.4 17.9-64.2-5.2-49.9-50-86.1-99.9-80.8s-86.2 49.9-80.9 99.8c.2 2.1.5 4.3.9 6.4-13-15.9-38.1-16.9-74-4l-3.5 1.2c-35.9 12.2-56.2 8.5-63.3-9.8-8.4-21.9 9-49.6 39.7-61.4 30.7-11.8 62.2-2.8 70.6 19.1l9.8-3.8-.4-1.1c-11.3-27.2-48.6-37.5-83.7-24-29.8 11.4-49.3 36.6-48.6 60.9-16.5-32.8-52.1-53.6-90.8-49.6l-70.4 7.4L173 287.4c-9.2 15.2-20.1 21.5-33.2 19.9-7.7-.9-13.2-4.4-23.7-14l-.8-.8c13.4-17.7 20.4-40.4 17.9-64.2-5.2-49.9-50-86.1-99.9-80.8-12 1.3-23.2 4.8-33.2 10.1v12.1c10.1-6.3 21.7-10.5 34.3-11.8 44.2-4.6 83.7 27.4 88.4 71.5 2.2 20.7-3.7 40.4-15.2 55.9-11-9.9-17.7-13.8-27.7-15-17.5-2.2-34.5 4.1-50.7 18.4l7 7.9 1.4-1.2c13.6-11.6 27.3-16.4 41.1-14.7 7.1.9 12.3 3.8 21.3 11.8l.9.8c-12.7 13.2-30 22.2-49.7 24.3-18.6 2-36.4-2.6-51.1-11.8v12.1c15.5 8.2 33.5 12.1 52.2 10.1 22.3-2.3 41.9-12.6 56.3-27.6 12.4 11.5 19.3 15.8 30 17.1 13.9 1.7 26-3.4 36.1-14.8l1.3 11.9 70.4-7.4 1.5-.2c49.2-6 84.6-50.3 79.4-99.6-.3-2.6-.6-5.1-1.1-7.6 12.7 17 38.2 18.3 74.9 5.1l1.7-.6c36.9-13 57.8-9.4 65 9.2 8.4 21.9-9 49.6-39.7 61.4-30.7 11.8-62.2 2.8-70.6-19.1l-9.8 3.8.4 1.1c11.3 27.2 48.6 37.5 83.7 24 29.2-11.2 48.5-35.6 48.6-59.4 16.8 32 51.9 52.3 90.1 48.3 22.3-2.3 41.9-12.6 56.3-27.6 12.4 11.5 19.3 15.8 30 17.1 14.3 1.8 26.8-3.7 37-15.8l1.3 12.8 70.4-7.4 1.5-.2c49.2-6 84.6-50.3 79.4-99.6-.3-2.6-.6-5.1-1.1-7.6 12.7 17 38.2 18.3 74.9 5.1l1.7-.6c36.9-13 57.8-9.4 65 9.2 8.4 21.9-9 49.6-39.7 61.4-30.7 11.8-62.2 2.8-70.6-19.1l-9.8 3.8.4 1.1c11.3 27.2 48.6 37.5 83.7 24 29.2-11.2 48.5-35.6 48.6-59.4 16.8 32 51.9 52.3 90.1 48.3 22.3-2.3 41.9-12.6 56.3-27.6 12.4 11.5 19.3 15.8 30 17.1 13.9 1.7 26-3.4 36.1-14.8l1.2 11.9 70.4-7.4 1.5-.2c49.2-6 84.6-50.3 79.4-99.6-.3-2.6-.6-5.1-1.1-7.6 12.7 17 38.2 18.3 74.9 5.1l1.7-.6h.1v-11c-1.8.6-3.6 1.2-5.4 1.9l-3.5 1.2c-35.9 12.2-56.2 8.5-63.3-9.8-8.4-21.9 9-49.6 39.7-61.4 11.1-4.2 22.2-5.8 32.4-5V.8c-11.5-.8-24 1-36.2 5.7zM245.1 297l-59.9 6.3-16.8-159.8 59.9-6.3c44.2-4.6 83.7 27.4 88.4 71.5 4.6 44.1-27.4 83.6-71.6 88.3zm380.6-66c-11-9.9-17.7-13.8-27.7-15-17.5-2.2-34.5 4.1-50.7 18.4l7 7.9 1.4-1.2c13.6-11.6 27.3-16.4 41.1-14.7 7.1.9 12.3 3.8 21.3 11.8l.9.8c-12.7 13.2-30 22.2-49.7 24.3-44.2 4.6-83.7-27.4-88.4-71.5s27.4-83.6 71.6-88.3c44.2-4.6 83.7 27.4 88.4 71.5 2.1 20.7-3.8 40.4-15.2 56zm138.5 11.4l-59.9 6.3L687.5 89l59.9-6.3c44.2-4.6 83.7 27.4 88.4 71.5s-27.4 83.6-71.6 88.2zm380.6-66c-11-9.9-17.7-13.8-27.7-15-17.5-2.2-34.5 4.1-50.7 18.4l7 7.9 1.4-1.2c13.6-11.6 27.3-16.4 41.1-14.7 7.1.9 12.3 3.8 21.3 11.8l.9.8c-12.7 13.2-30 22.2-49.7 24.3-44.2 4.6-83.7-27.4-88.4-71.5-4.6-44.1 27.4-83.6 71.6-88.3 44.2-4.6 83.7 27.4 88.4 71.5 2.1 20.8-3.8 40.4-15.2 56zm137.6 11.6l-59.9 6.3-16.8-159.8 59.9-6.3c44.2-4.6 83.7 27.4 88.4 71.5 4.6 44.1-27.5 83.6-71.6 88.3zM1396.3 380c-9.2 15.2-20.1 21.5-33.2 19.9-7.7-.9-13.2-4.4-23.7-14l-.8-.8c13.4-17.7 20.4-40.4 17.9-64.2-5.2-49.9-50-86.1-99.9-80.8-49.9 5.2-86.2 49.9-80.9 99.8.2 2.1.5 4.3.9 6.4-13-15.9-38.1-16.9-74-4l-3.5 1.2c-35.9 12.2-56.2 8.5-63.3-9.8-8.4-21.9 9-49.6 39.7-61.4 30.7-11.8 62.2-2.8 70.6 19.1l9.8-3.8-.4-1.1c-11.3-27.2-48.6-37.5-83.7-24-29.8 11.4-49.3 36.6-48.6 60.9-16.5-32.8-52.1-53.6-90.8-49.6l-70.4 7.4L876.7 421h10.6l-13.7-130.4 59.9-6.3c44.2-4.6 83.7 27.4 88.4 71.5 2.6 25.1-6.6 48.7-23.2 65.2h14.1c14.5-18 22.1-41.5 19.5-66.3-.3-2.6-.6-5.1-1.1-7.6 12.7 17 38.2 18.3 74.9 5.1l1.7-.6c36.9-13 57.8-9.4 65 9.2 8.1 21.1-7.9 47.8-36.8 60.2h21.2c17.5-12.7 28.2-30.7 28.2-48.4 14.2 27.2 41.6 45.8 72.9 48.4h15.1c.7-.1 1.4-.1 2.1-.2 22.3-2.3 41.9-12.6 56.3-27.6 12.4 11.5 19.3 15.8 30 17.1 13.9 1.7 26-3.4 36.1-14.8l1.2 11.9 40.8-4.3v-10.5l-31.5 3.3-16.8-159.8 48.3-5.1v-10.5l-59.8 6.3 16.2 153.2zm-65.4-2c-11-9.9-17.7-13.8-27.7-15-17.5-2.2-34.5 4.1-50.7 18.4l7 7.9 1.4-1.2c13.6-11.6 27.3-16.4 41.1-14.7 7.1.9 12.3 3.8 21.3 11.8l.9.8c-12.7 13.2-30 22.2-49.7 24.3-44.2 4.6-83.7-27.4-88.4-71.5s27.4-83.6 71.6-88.3c44.2-4.6 83.7 27.4 88.4 71.5 2.1 20.8-3.8 40.5-15.2 56zM757.3 421h38.5c-3.7-1.8-7.4-2.8-11.8-3.4-9-1.1-17.9.1-26.7 3.4zM1394.5 147l-9.8 3.8.4 1.1c8.2 19.7 30 30.5 54.8 29.8v-10.5c-21.1.7-39.3-8.4-45.4-24.2zM38.3 381.4c30.7-11.8 62.2-2.8 70.6 19.1l9.8-3.8-.4-1.1c-11.3-27.2-48.6-37.5-83.7-24-14.2 5.4-26.1 14-34.5 24.1v19.5c6-13.8 19.7-26.7 38.2-33.8zM219.3 349.2c-40.3 4.2-71.7 34.2-79.5 71.8h10.8c7.7-32.3 35-57.7 69.9-61.3 40.7-4.3 77.5 22.6 86.6 61.3h10.8c-9.4-45.1-51.7-76.7-98.6-71.8z"/><path d="M837.4 375.6c-5.2-49.9-50-86.1-99.9-80.8s-86.2 49.9-80.9 99.8c.2 2.1.5 4.3.9 6.4-13-15.9-38.1-16.9-74-4l-3.5 1.2c-35.9 12.2-56.2 8.5-63.3-9.8-8.4-21.9 9-49.6 39.7-61.4 30.7-11.8 62.2-2.8 70.6 19.1l9.8-3.8-.4-1.1c-11.3-27.2-48.6-37.5-83.7-24-29.8 11.4-49.3 36.6-48.6 60.9-16.5-32.8-52.1-53.6-90.8-49.6l-70.4 7.4 9 85.2h10.6l-8-75.8 59.9-6.3c44.2-4.6 83.7 27.4 88.4 71.5.4 3.6.5 7.1.4 10.7h10.5c.1-3.9-.1-7.8-.5-11.8-.3-2.6-.6-5.1-1.1-7.6 12.7 17 38.2 18.3 74.9 5.1l1.7-.6c36.9-13 57.8-9.4 65 9.2.7 1.8 1.2 3.7 1.6 5.6H675c-4.2-8.4-7-17.6-8-27.5-4.6-44.1 27.4-83.6 71.6-88.3 44.2-4.6 83.7 27.4 88.4 71.5 1.7 15.8-1.4 31.1-8.1 44.3h11.6c5.9-13.9 8.6-29.5 6.9-45.5zM1062.5 403.1l-9.8 3.8.4 1.1c2 4.9 4.9 9.2 8.5 13h17.1c-7.5-4.2-13.3-10.2-16.2-17.9z"/></svg>