<?xml version="1.0" encoding="utf-8"?>
<!-- Generator: Adobe Illustrator 19.2.0, SVG Export Plug-In . SVG Version: 6.00 Build 0)  -->
<svg version="1.1" id="Capa_1" xmlns="http://www.w3.org/2000/svg" xmlns:xlink="http://www.w3.org/1999/xlink" x="0px" y="0px"
	 viewBox="0 0 30 30" style="enable-background:new 0 0 30 30;" xml:space="preserve">
<g>
	<path d="M24.4,22.6l3.4-3.4c0.5-0.5,1.3-0.1,1.3,0.5v8.5c0,0.4-0.3,0.8-0.8,0.8h-8.5c-0.7,0-1-0.8-0.5-1.3l3.4-3.4L15,16.8
		l-7.6,7.6l3.4,3.4c0.5,0.5,0.1,1.3-0.5,1.3H1.7c-0.4,0-0.8-0.3-0.8-0.8v-8.5c0-0.7,0.8-1,1.3-0.5l3.4,3.4l7.6-7.6L5.6,7.4l-3.4,3.4
		c-0.5,0.5-1.3,0.1-1.3-0.5V1.7c0-0.4,0.3-0.8,0.8-0.8h8.5c0.7,0,1,0.8,0.5,1.3L7.4,5.6l7.6,7.6l7.6-7.6l-3.4-3.4
		c-0.5-0.5-0.1-1.3,0.5-1.3h8.5c0.4,0,0.8,0.3,0.8,0.8v8.5c0,0.7-0.8,1-1.3,0.5l-3.4-3.4L16.8,15L24.4,22.6z"/>
</g>
</svg>
