<?xml version="1.0" encoding="utf-8"?>
<!-- Generator: Adobe Illustrator 19.2.0, SVG Export Plug-In . SVG Version: 6.00 Build 0)  -->
<svg version="1.1" id="Capa_1" xmlns="http://www.w3.org/2000/svg" xmlns:xlink="http://www.w3.org/1999/xlink" x="0px" y="0px"
	 viewBox="0 0 30 30" style="enable-background:new 0 0 30 30;" xml:space="preserve">
<style type="text/css">
	.st0{fill:none;stroke:#000000;stroke-width:1.5;stroke-linecap:round;stroke-linejoin:round;stroke-miterlimit:10;}
</style>
<polyline class="st0" points="4.2,2.1 1.4,4.8 4.1,7.5 "/>
<line class="st0" x1="7.6" y1="4.8" x2="1.4" y2="4.8"/>
<polyline class="st0" points="21.2,2.1 24,4.8 21.3,7.5 "/>
<line class="st0" x1="17.8" y1="4.8" x2="24" y2="4.8"/>
<path class="st0" d="M11.1,17.6v-15c0-0.9,0.7-1.6,1.6-1.6H13c0.9,0,1.6,0.7,1.6,1.6v9.7v-0.2c0-0.9,0.7-1.6,1.6-1.6h0
	c0.9,0,1.6,0.7,1.6,1.6v1.5V13c0-0.9,0.7-1.6,1.6-1.6h0.3c0.9,0,1.6,0.7,1.6,1.6v1.3v-0.2c0-0.9,0.7-1.6,1.6-1.6h0.2
	c0.9,0,1.6,0.7,1.6,1.6v7.7c0,4-3.3,7.3-7.3,7.3h0c-3.3,0-6.3-1.9-7.6-4.9L5.2,13.4c-0.5-1,0-2.2,1-2.6l0,0c1.1-0.5,2.3,0,2.7,1.1
	L11.1,17.6z"/>
</svg>
