<?xml version="1.0" encoding="utf-8"?>
<!-- Generator: Adobe Illustrator 19.2.0, SVG Export Plug-In . SVG Version: 6.00 Build 0)  -->
<svg version="1.1" id="Capa_1" xmlns="http://www.w3.org/2000/svg" xmlns:xlink="http://www.w3.org/1999/xlink" x="0px" y="0px"
	 width="30px" height="30px" viewBox="0 0 30 30" style="enable-background:new 0 0 30 30;" xml:space="preserve">
<g>
	<path d="M28.5,29.8c-0.3,0.3-0.7,0.3-1,0l-7.1-7.1c-0.1-0.1-0.2-0.3-0.2-0.5v-0.8c-2.1,1.8-4.9,3-8,3C5.5,24.4,0,18.9,0,12.2
		C0,5.5,5.5,0,12.2,0s12.2,5.5,12.2,12.2c0,3-1.1,5.8-3,8h0.8c0.2,0,0.4,0.1,0.5,0.2l7.1,7.1c0.3,0.3,0.3,0.7,0,1L28.5,29.8z
		 M12.2,2.8C7,2.8,2.8,7,2.8,12.2s4.2,9.4,9.4,9.4s9.4-4.2,9.4-9.4S17.4,2.8,12.2,2.8z M18.3,12.9c0,0.4-0.3,0.7-0.7,0.7h-4v4
		c0,0.4-0.3,0.7-0.7,0.7h-1.4c-0.4,0-0.7-0.3-0.7-0.7v-4h-4c-0.4,0-0.7-0.3-0.7-0.7v-1.4c0-0.4,0.3-0.7,0.7-0.7h4v-4
		c0-0.4,0.3-0.7,0.7-0.7h1.4c0.4,0,0.7,0.3,0.7,0.7v4h4c0.4,0,0.7,0.3,0.7,0.7V12.9z"/>
</g>
</svg>
