<?xml version="1.0" encoding="UTF-8"?>
<svg width="18px" height="20px" viewBox="0 0 18 20" version="1.1" xmlns="http://www.w3.org/2000/svg" xmlns:xlink="http://www.w3.org/1999/xlink">
    <title>icon/grey/instagram</title>
    <g id="Contact" stroke="none" stroke-width="1" fill="none" fill-rule="evenodd">
        <g transform="translate(-1027.000000, -179.000000)" fill="#000000" fill-rule="nonzero" id="icon/grey/instagram">
            <g transform="translate(1027.000000, 179.000000)" id="icon-grey-instagram">
                <path d="M8.99998363,2.48501842 C11.2028393,2.48501842 11.463746,2.49433353 12.3336752,2.53843475 C13.1380421,2.57922473 13.5748733,2.72855755 13.8656138,2.8540568 C14.2506698,3.02034604 14.5255274,3.21901982 14.8142048,3.53977247 C15.1028821,3.86052511 15.2816886,4.16592239 15.4313161,4.59376238 C15.5442982,4.91680742 15.6786977,5.40217548 15.7154087,6.29588005 C15.7550998,7.26250444 15.7634834,7.55240079 15.7634834,10.0000182 C15.7634834,12.4476356 15.7550998,12.737532 15.7154087,13.7041199 C15.6786977,14.5978609 15.5442982,15.083229 15.4313161,15.406274 C15.2816886,15.834114 15.1028821,16.1395113 14.8142048,16.4602639 C14.5255274,16.7810165 14.2506698,16.9796904 13.8656138,17.1459432 C13.5748733,17.2714788 13.1380421,17.4208117 12.3336752,17.4616016 C11.463877,17.5057028 11.2029703,17.515018 8.99998363,17.515018 C6.79699697,17.515018 6.53609026,17.5057028 5.66629205,17.4616016 C4.86192519,17.4208117 4.42509393,17.2714788 4.13438614,17.1459432 C3.7492974,16.9796904 3.47443985,16.7810165 3.18576247,16.4602639 C2.89708509,16.1395113 2.71827868,15.834114 2.56865112,15.406274 C2.45566905,15.083229 2.32126951,14.5978609 2.28455852,13.7041563 C2.24486743,12.737532 2.23648383,12.4476356 2.23648383,10.0000182 C2.23648383,7.55240079 2.24486743,7.26250444 2.28455852,6.29591644 C2.32126951,5.40217548 2.45566905,4.91680742 2.56865112,4.59376238 C2.71827868,4.16592239 2.89708509,3.86052511 3.18576247,3.53977247 C3.47443985,3.21901982 3.7492974,3.02034604 4.13438614,2.8540568 C4.42509393,2.72855755 4.86192519,2.57922473 5.6662593,2.53843475 C6.53622125,2.49433353 6.79712796,2.48501842 8.99998363,2.48501842 L8.99998363,2.48501842 Z M8.99998363,0.833333333 C6.75940178,0.833333333 6.47848577,0.843885604 5.59853555,0.888496239 C4.72038649,0.933034099 4.12069731,1.08797054 3.59590376,1.31458966 C3.05339334,1.54885007 2.59331069,1.8622889 2.13466897,2.3718908 C1.67602726,2.88149271 1.39393231,3.39269564 1.18309794,3.99548501 C0.979140741,4.57858895 0.839697941,5.24491027 0.799613866,6.22063144 C0.759464295,7.19831752 0.75,7.51048281 0.75,10.0000182 C0.75,12.4895536 0.759464295,12.8017188 0.799613866,13.7794049 C0.839697941,14.7551261 0.979140741,15.4214475 1.18309794,16.0045514 C1.39393231,16.6073043 1.67602726,17.1185437 2.13466897,17.6281456 C2.59331069,18.1377475 3.05339334,18.4511863 3.59590376,18.6854467 C4.12069731,18.9120659 4.72038649,19.0670023 5.59853555,19.1115401 C6.47848577,19.1561508 6.75940178,19.1666667 8.99998363,19.1666667 C11.2405655,19.1666667 11.5215142,19.1561508 12.4014317,19.1115401 C13.2795808,19.0670023 13.87927,18.9120659 14.4040635,18.6854467 C14.9465739,18.4511863 15.4066565,18.1377475 15.8652983,17.6281456 C16.32394,17.1185437 16.606035,16.6073407 16.8168693,16.0045514 C17.0208265,15.4214475 17.1602693,14.7551261 17.2003534,13.7794049 C17.240503,12.8017188 17.25,12.4895536 17.25,10.0000182 C17.25,7.51048281 17.240503,7.19831752 17.2003534,6.22063144 C17.1602693,5.24491027 17.0208265,4.57858895 16.8168693,3.99548501 C16.606035,3.39269564 16.32394,2.88149271 15.8652983,2.3718908 C15.4066565,1.8622889 14.9465739,1.54885007 14.4040635,1.31458966 C13.87927,1.08797054 13.2795808,0.933034099 12.4014317,0.888496239 C11.5215142,0.843885604 11.2405655,0.833333333 8.99998363,0.833333333 Z M8.99998363,5.29279575 C6.66023954,5.29279575 4.76348342,7.40030254 4.76348342,10.0000182 C4.76348342,12.5997338 6.66023954,14.7072407 8.99998363,14.7072407 C11.3397277,14.7072407 13.2364839,12.5997338 13.2364839,10.0000182 C13.2364839,7.40030254 11.3397277,5.29279575 8.99998363,5.29279575 Z M8.99998363,13.055592 C7.48120987,13.055592 6.24996725,11.6875446 6.24996725,10.0000182 C6.24996725,8.31249179 7.48120987,6.94444444 8.99998363,6.94444444 C10.5187574,6.94444444 11.75,8.31249179 11.75,10.0000182 C11.75,11.6875446 10.5187574,13.055592 8.99998363,13.055592 Z M14.393846,5.10682107 C14.393846,5.71434077 13.9506287,6.20684072 13.403861,6.20684072 C12.8570933,6.20684072 12.4138434,5.71434077 12.4138434,5.10682107 C12.4138434,4.49930136 12.8570933,4.0068378 13.403861,4.0068378 C13.9506287,4.0068378 14.393846,4.49930136 14.393846,5.10682107 Z" id="instagram-grey"></path>
            </g>
        </g>
    </g>
</svg>