<?xml version="1.0" encoding="UTF-8"?>
<svg width="168px" height="93px" viewBox="0 0 168 93" version="1.1" xmlns="http://www.w3.org/2000/svg" xmlns:xlink="http://www.w3.org/1999/xlink">
    <!-- Generator: Sketch 58 (84663) - https://sketch.com -->
    <title>Group 2</title>
    <desc>Created with Sketch.</desc>
    <defs>
        <rect id="path-1" x="1.97890014" y="5.01825788" width="67.76" height="31.68" rx="4"></rect>
        <filter x="-16.2%" y="-31.6%" width="132.5%" height="169.4%" filterUnits="objectBoundingBox" id="filter-2">
            <feOffset dx="0" dy="1" in="SourceAlpha" result="shadowOffsetOuter1"></feOffset>
            <feGaussianBlur stdDeviation="3.5" in="shadowOffsetOuter1" result="shadowBlurOuter1"></feGaussianBlur>
            <feColorMatrix values="0 0 0 0 0   0 0 0 0 0   0 0 0 0 0  0 0 0 0.195257867 0" type="matrix" in="shadowBlurOuter1"></feColorMatrix>
        </filter>
    </defs>
    <g id="Symbols" stroke="none" stroke-width="1" fill="none" fill-rule="evenodd">
        <g id="Bar/Nav2" transform="translate(-50.000000, -26.000000)">
            <g id="Group-2" transform="translate(50.000000, 31.000000)">
                <g id="Logo-Copy" transform="translate(0.000000, 10.000000)" fill="#000000">
                    <g id="Group-3">
                        <path d="M3.56995815,7.2 L3.56995815,1.38500707 L5.46341661,1.38500707 L5.46341661,0 L0,0 L0,1.38500707 L1.87373494,1.38500707 L1.87373494,7.2 L3.56995815,7.2 Z M11.9688928,7.2 L11.9688928,4.19575672 L14.6118453,4.19575672 L14.6118453,7.2 L16.3080685,7.2 L16.3080685,0 L14.6118453,0 L14.6118453,2.7903819 L11.9688928,2.7903819 L11.9688928,0 L10.2825314,0 L10.2825314,7.2 L11.9688928,7.2 Z M25.92,7.2 L25.92,5.80480905 L23.2671858,5.80480905 L23.2671858,4.20594059 L25.6241471,4.20594059 L25.6241471,2.89222065 L23.2671858,2.89222065 L23.2671858,1.38500707 L25.92,1.38500707 L25.92,0 L21.5808244,0 L21.5808244,7.2 L25.92,7.2 Z" id="THE" fill-rule="nonzero"></path>
                        <path d="M58.7142161,77.7304828 L58.7142161,75.2675862 L59.7768296,75.2675862 C60.3315272,75.2675862 60.802686,75.169931 61.190306,74.9746207 C61.577926,74.7793103 61.8703118,74.5111724 62.0674634,74.1702069 C62.2646149,73.8292414 62.3631907,73.4402759 62.3631907,73.0033103 C62.3631907,72.3015172 62.1426483,71.7437241 61.7015635,71.329931 C61.2604786,70.9161379 60.6189007,70.7092414 59.7768296,70.7092414 L59.7768296,70.7092414 L57,70.7092414 L57,77.7304828 L58.7142161,77.7304828 Z M59.5863611,73.9070345 L58.7142161,73.9070345 L58.7142161,72.0797241 L59.5863611,72.0797241 C60.2747208,72.0797241 60.6189007,72.3875862 60.6189007,73.0033103 C60.6189007,73.6057931 60.2747208,73.9070345 59.5863611,73.9070345 L59.5863611,73.9070345 Z M69.0964177,77.7304828 L69.0964177,75.0788966 L69.4873793,75.0788966 L71.0211516,77.7304828 L72.9158115,77.7304828 L71.2316693,74.9696552 C71.7730007,74.8372414 72.1856824,74.5922759 72.4697143,74.2347586 C72.7537462,73.8772414 72.8957621,73.4435862 72.8957621,72.9337931 C72.8957621,72.5034483 72.7988571,72.1211034 72.6050471,71.7867586 C72.4112371,71.4524138 72.1205221,71.1892414 71.7329021,70.9972414 C71.3452821,70.8052414 70.8707817,70.7092414 70.309401,70.7092414 L70.309401,70.7092414 L67.3822016,70.7092414 L67.3822016,77.7304828 L69.0964177,77.7304828 Z M70.1590312,73.9169655 L69.0964177,73.9169655 L69.0964177,72.1393103 L70.1590312,72.1393103 C70.4931864,72.1393103 70.742132,72.2187586 70.905868,72.3776552 C71.0696041,72.5365517 71.1514721,72.7550345 71.1514721,73.0331034 C71.1514721,73.3244138 71.0712748,73.5445517 70.9108803,73.6935172 C70.7504859,73.8424828 70.4998695,73.9169655 70.1590312,73.9169655 L70.1590312,73.9169655 Z M81.3031066,77.8 C81.9647339,77.8 82.567884,77.646069 83.1125569,77.3382069 C83.6572299,77.0303448 84.0882901,76.6016552 84.4057375,76.0521379 C84.7231849,75.5026207 84.8819086,74.8835862 84.8819086,74.1950345 C84.8819086,73.5064828 84.7248557,72.8891034 84.4107498,72.3428966 C84.0966439,71.7966897 83.6672545,71.3696552 83.1225816,71.0617931 C82.5779086,70.753931 81.971417,70.6 81.3031066,70.6 C80.6414793,70.6 80.0383292,70.753931 79.4936563,71.0617931 C78.9489833,71.3696552 78.5179231,71.7966897 78.2004757,72.3428966 C77.8830283,72.8891034 77.7243046,73.5064828 77.7243046,74.1950345 C77.7243046,74.8835862 77.8830283,75.5026207 78.2004757,76.0521379 C78.5179231,76.6016552 78.9489833,77.0303448 79.4936563,77.3382069 C80.0383292,77.646069 80.6414793,77.8 81.3031066,77.8 Z M81.3031066,76.2110345 C80.7417259,76.2110345 80.2956287,76.0289655 79.9648151,75.6648276 C79.6340015,75.3006897 79.4685946,74.8107586 79.4685946,74.1950345 C79.4685946,73.5726897 79.6340015,73.0811034 79.9648151,72.7202759 C80.2956287,72.3594483 80.7417259,72.1790345 81.3031066,72.1790345 C81.8644873,72.1790345 82.3105845,72.3611034 82.6413981,72.7252414 C82.9722117,73.0893793 83.1376186,73.5793103 83.1376186,74.1950345 C83.1376186,74.8107586 82.970541,75.3006897 82.6363858,75.6648276 C82.3022306,76.0289655 81.8578042,76.2110345 81.3031066,76.2110345 Z M92.1063437,77.8 C92.8214358,77.8 93.3811458,77.6013793 93.7854735,77.2041379 C94.1898013,76.8068966 94.3919652,76.2408276 94.3919652,75.505931 L94.3919652,75.505931 L94.3919652,70.7092414 L92.6777491,70.7092414 L92.6777491,75.505931 C92.6777491,76.0091034 92.4605482,76.2606897 92.0261465,76.2606897 C91.5249137,76.2606897 91.2742973,75.9329655 91.2742973,75.2775172 L91.2742973,75.2775172 L89.5801305,75.2775172 C89.5801305,76.0918621 89.8073561,76.7158621 90.2618071,77.1495172 C90.7162582,77.5831724 91.3311037,77.8 92.1063437,77.8 Z M104.11254,77.7304828 L104.11254,76.369931 L101.415907,76.369931 L101.415907,74.8107586 L103.8118,74.8107586 L103.8118,73.5296552 L101.415907,73.5296552 L101.415907,72.0598621 L104.11254,72.0598621 L104.11254,70.7092414 L99.7016911,70.7092414 L99.7016911,77.7304828 L104.11254,77.7304828 Z M112.499835,77.790069 C113.402054,77.790069 114.148891,77.5533793 114.740345,77.08 C115.3318,76.6066207 115.714408,75.9726897 115.888168,75.1782069 L115.888168,75.1782069 L114.073706,75.1782069 C113.940044,75.496 113.734538,75.7475862 113.457189,75.9329655 C113.17984,76.1183448 112.850698,76.2110345 112.469761,76.2110345 C111.968528,76.2110345 111.5642,76.0306207 111.256777,75.6697931 C110.949355,75.3089655 110.795643,74.824 110.795643,74.2148966 C110.795643,73.6057931 110.949355,73.1191724 111.256777,72.7550345 C111.5642,72.3908966 111.968528,72.2088276 112.469761,72.2088276 C112.850698,72.2088276 113.17984,72.3015172 113.457189,72.4868966 C113.734538,72.6722759 113.940044,72.9271724 114.073706,73.2515862 L114.073706,73.2515862 L115.888168,73.2515862 C115.714408,72.4504828 115.3318,71.8148966 114.740345,71.3448276 C114.148891,70.8747586 113.402054,70.6397241 112.499835,70.6397241 C111.811475,70.6397241 111.206654,70.7903448 110.685372,71.0915862 C110.16409,71.3928276 109.761433,71.8148966 109.477401,72.3577931 C109.193369,72.9006897 109.051353,73.5197241 109.051353,74.2148966 C109.051353,74.910069 109.193369,75.5291034 109.477401,76.072 C109.761433,76.6148966 110.16409,77.0369655 110.685372,77.3382069 C111.206654,77.6394483 111.811475,77.790069 112.499835,77.790069 Z M124.195266,77.7304828 L124.195266,72.0598621 L126.12,72.0598621 L126.12,70.7092414 L120.566341,70.7092414 L120.566341,72.0598621 L122.471025,72.0598621 L122.471025,77.7304828 L124.195266,77.7304828 Z" id="PROJECT" fill-rule="nonzero"></path>
                        <path d="M16.9837548,16.72 C26.3273505,16.72 34.2993846,22.6167374 37.410478,30.9063437 C37.8499437,25.0601734 43.1297891,19.5161428 50.5274987,17.5257015 C59.257599,15.1767648 67.8976264,18.5945776 69.9142832,25.3960321 L69.9914016,25.6698893 L67.5574183,26.3247812 C66.101169,20.8674174 58.8083316,17.9172135 51.1796825,19.9697917 C43.5510335,22.02237 38.7042531,28.2388816 40.1605024,33.6962455 C41.3803682,38.2677509 46.1432666,39.6840209 55.0128949,37.649773 L55.8700559,37.4455933 C64.7564426,35.2523263 70.7329799,36.1316018 73.4325344,40.2757359 C73.3959772,39.7648676 73.3778841,39.2483203 73.3778841,38.7275297 C73.3778841,26.6256066 83.1478623,16.8150594 95.1997412,16.8150594 C107.25162,16.8150594 117.021598,26.6256066 117.021598,38.7275297 C117.021598,44.5098876 114.791137,49.7691301 111.147025,53.6850535 L111.11969,53.6532483 C113.504758,56.3887946 114.761,57.3963908 116.62103,57.8258127 C119.742643,58.5464938 122.546685,57.236584 125.177119,53.6941892 L125.395923,53.3938176 L127.442835,54.866094 C124.200253,59.4023903 120.351154,61.2838455 116.051834,60.2912694 C113.537057,59.7106872 111.999497,58.4958175 109.320996,55.4350444 C105.514557,58.6812031 100.584954,60.64 95.1997412,60.64 C85.9809983,60.64 78.0974073,54.8997988 74.9003285,46.7846733 C74.2846135,52.5033509 69.0673205,57.8710852 61.8140677,59.8226586 C53.0839674,62.1715954 44.44394,58.7537825 42.4272831,51.9523281 L42.3501648,51.6784709 L44.7841481,51.0235789 C46.2403974,56.4809428 53.5332348,59.4311467 61.1618839,57.3785685 C68.7905329,55.3259902 73.6373133,49.1094786 72.181064,43.6521147 C70.9418353,39.0080457 66.046204,37.6201733 56.9032019,39.7980654 L56.4715105,39.9027669 C47.3807444,42.1464771 41.3352151,41.1746879 38.7279743,36.7815063 C38.7796781,37.3915431 38.8056118,38.0089656 38.8056118,38.6324703 C38.8056118,50.6133742 29.2300562,60.3485005 17.3446191,60.5420049 L16.9837548,60.5449406 L-5.36700732e-15,60.5449406 L5.36700732e-15,16.72 L16.9837548,16.72 Z M95.1997412,19.3453678 C84.5395342,19.3453678 75.8977291,28.0230573 75.8977291,38.7275297 C75.8977291,49.4320022 84.5395342,58.1096917 95.1997412,58.1096917 C99.9496909,58.1096917 104.298908,56.3868282 107.661456,53.5294718 C105.606698,51.2361208 104.403489,50.34562 102.684717,49.9488103 C99.4169553,49.1943879 96.0388369,50.0047389 92.4892519,52.4457323 L92.1337196,52.6952695 L90.6725253,50.6366913 C94.9066848,47.6049857 99.1229563,46.5296471 103.253913,47.4833535 C105.605892,48.0263506 107.103082,49.12417 109.478329,51.7680233 C112.59976,48.3252381 114.501753,43.7494234 114.501753,38.7275297 C114.501753,28.0230573 105.859948,19.3453678 95.1997412,19.3453678 Z M16.9837548,19.2503083 L2.51984492,19.2503083 L2.51984492,58.0146322 L16.9837548,58.0146322 C27.6439617,58.0146322 36.2857669,49.3369427 36.2857669,38.6324703 C36.2857669,27.9279978 27.6439617,19.2503083 16.9837548,19.2503083 Z" id="Combined-Shape" fill-rule="nonzero"></path>
                    </g>
                </g>
                <g id="popup" transform="translate(90.000000, 0.000000)">
                    <g id="Rectangle" transform="translate(35.858900, 20.858258) rotate(-8.000000) translate(-35.858900, -20.858258) ">
                        <use fill="black" fill-opacity="1" filter="url(#filter-2)" xlink:href="#path-1"></use>
                        <use fill="#000000" fill-rule="evenodd" xlink:href="#path-1"></use>
                    </g>
                    <path d="M9.56608405,18.8943258 L9.56608405,16.5243258 L10.536084,16.5243258 C11.096084,16.5243258 11.5744174,16.4226591 11.971084,16.2193258 C12.3677507,16.0159924 12.666084,15.7376591 12.866084,15.3843258 C13.066084,15.0309924 13.166084,14.6309924 13.166084,14.1843258 C13.166084,13.4643258 12.941084,12.8893258 12.491084,12.4593258 C12.041084,12.0293258 11.3894174,11.8143258 10.536084,11.8143258 L10.536084,11.8143258 L7.59608405,11.8143258 L7.59608405,18.8943258 L9.56608405,18.8943258 Z M10.316084,14.9743258 L9.56608405,14.9743258 L9.56608405,13.4043258 L10.316084,13.4043258 C10.8894174,13.4043258 11.176084,13.6643258 11.176084,14.1843258 C11.176084,14.7109924 10.8894174,14.9743258 10.316084,14.9743258 L10.316084,14.9743258 Z M19.6188113,18.9643258 C20.2788113,18.9643258 20.8838113,18.8093258 21.4338113,18.4993258 C21.9838113,18.1893258 22.4188113,17.7576591 22.7388113,17.2043258 C23.0588113,16.6509924 23.2188113,16.0276591 23.2188113,15.3343258 C23.2188113,14.6409924 23.060478,14.0176591 22.7438113,13.4643258 C22.4271447,12.9109924 21.9938113,12.4793258 21.4438113,12.1693258 C20.8938113,11.8593258 20.285478,11.7043258 19.6188113,11.7043258 C18.9588113,11.7043258 18.3521447,11.8593258 17.7988113,12.1693258 C17.245478,12.4793258 16.8088113,12.9109924 16.4888113,13.4643258 C16.1688113,14.0176591 16.0088113,14.6409924 16.0088113,15.3343258 C16.0088113,16.0276591 16.1688113,16.6509924 16.4888113,17.2043258 C16.8088113,17.7576591 17.245478,18.1893258 17.7988113,18.4993258 C18.3521447,18.8093258 18.9588113,18.9643258 19.6188113,18.9643258 Z M19.6188113,17.1343258 C19.1188113,17.1343258 18.725478,16.9709924 18.4388113,16.6443258 C18.1521447,16.3176591 18.0088113,15.8809924 18.0088113,15.3343258 C18.0088113,14.7743258 18.1521447,14.3326591 18.4388113,14.0093258 C18.725478,13.6859924 19.1188113,13.5243258 19.6188113,13.5243258 C20.1188113,13.5243258 20.510478,13.6859924 20.7938113,14.0093258 C21.0771447,14.3326591 21.2188113,14.7743258 21.2188113,15.3343258 C21.2188113,15.8809924 21.075478,16.3176591 20.7888113,16.6443258 C20.5021447,16.9709924 20.1121447,17.1343258 19.6188113,17.1343258 Z M28.3415386,18.8943258 L28.3415386,16.5243258 L29.3115386,16.5243258 C29.8715386,16.5243258 30.3498719,16.4226591 30.7465386,16.2193258 C31.1432053,16.0159924 31.4415386,15.7376591 31.6415386,15.3843258 C31.8415386,15.0309924 31.9415386,14.6309924 31.9415386,14.1843258 C31.9415386,13.4643258 31.7165386,12.8893258 31.2665386,12.4593258 C30.8165386,12.0293258 30.1648719,11.8143258 29.3115386,11.8143258 L29.3115386,11.8143258 L26.3715386,11.8143258 L26.3715386,18.8943258 L28.3415386,18.8943258 Z M29.0915386,14.9743258 L28.3415386,14.9743258 L28.3415386,13.4043258 L29.0915386,13.4043258 C29.6648719,13.4043258 29.9515386,13.6643258 29.9515386,14.1843258 C29.9515386,14.7109924 29.6648719,14.9743258 29.0915386,14.9743258 L29.0915386,14.9743258 Z M37.9342659,18.9643258 C38.5209325,18.9643258 39.0475992,18.8459924 39.5142659,18.6093258 C39.9809325,18.3726591 40.3492659,18.0209924 40.6192659,17.5543258 C40.8892659,17.0876591 41.0242659,16.5209924 41.0242659,15.8543258 L41.0242659,15.8543258 L41.0242659,11.8143258 L39.0642659,11.8143258 L39.0642659,15.8543258 C39.0642659,16.2476591 38.9725992,16.5543258 38.7892659,16.7743258 C38.6059325,16.9943258 38.3342659,17.1043258 37.9742659,17.1043258 C37.6142659,17.1043258 37.3459325,16.9959924 37.1692659,16.7793258 C36.9925992,16.5626591 36.9042659,16.2543258 36.9042659,15.8543258 L36.9042659,15.8543258 L36.9042659,11.8143258 L34.9442659,11.8143258 L34.9442659,15.8543258 C34.9442659,16.5276591 35.0709325,17.0976591 35.3242659,17.5643258 C35.5775992,18.0309924 35.9292659,18.3809924 36.3792659,18.6143258 C36.8292659,18.8476591 37.3475992,18.9643258 37.9342659,18.9643258 Z M46.3069931,18.8943258 L46.3069931,16.5243258 L47.2769931,16.5243258 C47.8369931,16.5243258 48.3153265,16.4226591 48.7119931,16.2193258 C49.1086598,16.0159924 49.4069931,15.7376591 49.6069931,15.3843258 C49.8069931,15.0309924 49.9069931,14.6309924 49.9069931,14.1843258 C49.9069931,13.4643258 49.6819931,12.8893258 49.2319931,12.4593258 C48.7819931,12.0293258 48.1303265,11.8143258 47.2769931,11.8143258 L47.2769931,11.8143258 L44.3369931,11.8143258 L44.3369931,18.8943258 L46.3069931,18.8943258 Z M47.0569931,14.9743258 L46.3069931,14.9743258 L46.3069931,13.4043258 L47.0569931,13.4043258 C47.6303265,13.4043258 47.9169931,13.6643258 47.9169931,14.1843258 C47.9169931,14.7109924 47.6303265,14.9743258 47.0569931,14.9743258 L47.0569931,14.9743258 Z M10.966084,29.7683258 C11.8127507,29.7683258 12.5144174,29.5599924 13.071084,29.1433258 C13.6277507,28.7266591 14.0327507,28.2249924 14.286084,27.6383258 L14.286084,27.6383258 L14.286084,25.6883258 L10.696084,25.6883258 L10.696084,27.0883258 L12.656084,27.0883258 C12.5094174,27.4016591 12.3094174,27.6383258 12.056084,27.7983258 C11.8027507,27.9583258 11.5094174,28.0383258 11.176084,28.0383258 C10.5894174,28.0383258 10.1444174,27.8799924 9.84108405,27.5633258 C9.53775071,27.2466591 9.38608405,26.7816591 9.38608405,26.1683258 C9.38608405,25.6283258 9.52775071,25.1966591 9.81108405,24.8733258 C10.0944174,24.5499924 10.476084,24.3883258 10.956084,24.3883258 C11.236084,24.3883258 11.4794174,24.4449924 11.686084,24.5583258 C11.8927507,24.6716591 12.0494174,24.8249924 12.156084,25.0183258 L12.156084,25.0183258 L14.226084,25.0183258 C14.106084,24.2716591 13.756084,23.6783258 13.176084,23.2383258 C12.596084,22.7983258 11.8527507,22.5783258 10.946084,22.5783258 C10.226084,22.5783258 9.59941738,22.7299924 9.06608405,23.0333258 C8.53275071,23.3366591 8.12108405,23.7599924 7.83108405,24.3033258 C7.54108405,24.8466591 7.39608405,25.4683258 7.39608405,26.1683258 C7.39608405,26.8683258 7.54108405,27.4916591 7.83108405,28.0383258 C8.12108405,28.5849924 8.53608405,29.0099924 9.07608405,29.3133258 C9.61608405,29.6166591 10.246084,29.7683258 10.966084,29.7683258 Z M19.0088113,29.7183258 L19.3988113,28.5383258 L21.9088113,28.5383258 L22.2988113,29.7183258 L24.3788113,29.7183258 L21.7988113,22.6683258 L19.5288113,22.6683258 L16.9388113,29.7183258 L19.0088113,29.7183258 Z M21.4188113,27.0583258 L19.8888113,27.0583258 L20.6588113,24.7583258 L21.4188113,27.0583258 Z M31.4115386,29.7183258 L31.4115386,28.2283258 L29.2015386,28.2283258 L29.2015386,22.6383258 L27.2315386,22.6383258 L27.2315386,29.7183258 L31.4115386,29.7183258 Z M38.6042659,29.7183258 L38.6042659,28.2283258 L36.3942659,28.2283258 L36.3942659,22.6383258 L34.4242659,22.6383258 L34.4242659,29.7183258 L38.6042659,29.7183258 Z M46.1769931,29.7183258 L46.1769931,28.1483258 L43.5869931,28.1483258 L43.5869931,26.8683258 L45.8769931,26.8683258 L45.8769931,25.3783258 L43.5869931,25.3783258 L43.5869931,24.2083258 L46.1769931,24.2083258 L46.1769931,22.6383258 L41.6169931,22.6383258 L41.6169931,29.7183258 L46.1769931,29.7183258 Z M51.3197204,29.7183258 L51.3197204,27.1083258 L51.5197204,27.1083258 L52.9497204,29.7183258 L55.1197204,29.7183258 L53.5097204,26.9683258 C54.0230537,26.8216591 54.4163871,26.5666591 54.6897204,26.2033258 C54.9630537,25.8399924 55.0997204,25.4116591 55.0997204,24.9183258 C55.0997204,24.4849924 54.9997204,24.0949924 54.7997204,23.7483258 C54.5997204,23.4016591 54.3013871,23.1299924 53.9047204,22.9333258 C53.5080537,22.7366591 53.0263871,22.6383258 52.4597204,22.6383258 L52.4597204,22.6383258 L49.3497204,22.6383258 L49.3497204,29.7183258 L51.3197204,29.7183258 Z M52.2897204,25.7883258 L51.3197204,25.7883258 L51.3197204,24.2983258 L52.2897204,24.2983258 C52.5630537,24.2983258 52.7680537,24.3649924 52.9047204,24.4983258 C53.0413871,24.6316591 53.1097204,24.8149924 53.1097204,25.0483258 C53.1097204,25.5416591 52.8363871,25.7883258 52.2897204,25.7883258 L52.2897204,25.7883258 Z M62.1124477,29.7183258 L62.1124477,27.4683258 L64.6124477,22.6383258 L62.3924477,22.6383258 L61.1524477,25.3383258 L59.9024477,22.6383258 L57.6524477,22.6383258 L60.1524477,27.4683258 L60.1524477,29.7183258 L62.1124477,29.7183258 Z" id="POPUPGALLERY" fill="#FFFFFF" fill-rule="nonzero" transform="translate(36.004266, 20.736326) rotate(-8.000000) translate(-36.004266, -20.736326) "></path>
                </g>
            </g>
        </g>
    </g>
</svg>