<?xml version="1.0" encoding="utf-8"?>
<!-- Generator: Adobe Illustrator 19.2.0, SVG Export Plug-In . SVG Version: 6.00 Build 0)  -->
<svg version="1.1" id="Capa_1" xmlns="http://www.w3.org/2000/svg" xmlns:xlink="http://www.w3.org/1999/xlink" x="0px" y="0px"
	 width="78px" height="78px" viewBox="0 0 78 78" style="enable-background:new 0 0 78 78;" xml:space="preserve">
<style type="text/css">
	.st0{fill:#B0AFAF;}
	.st1{fill:#FFFFFF;}
</style>
<rect class="st0" width="78" height="78"/>
<g>
	<g>
		<path class="st1" d="M32.5,8.2c0,0,0.1,0.1,0.1,0.2v0.8c0,0.1,0,0.1-0.1,0.2c0,0-0.1,0.1-0.2,0.1h-2.8c-0.1,0-0.1,0-0.1,0.1v9
			c0,0.1,0,0.1-0.1,0.2c0,0-0.1,0.1-0.2,0.1h-1c-0.1,0-0.1,0-0.2-0.1c0,0-0.1-0.1-0.1-0.2v-9c0-0.1,0-0.1-0.1-0.1h-2.7
			c-0.1,0-0.1,0-0.2-0.1c0,0-0.1-0.1-0.1-0.2V8.3c0-0.1,0-0.1,0.1-0.2c0,0,0.1-0.1,0.2-0.1h7.1C32.4,8.1,32.5,8.1,32.5,8.2z"/>
		<path class="st1" d="M40.8,8.2c0,0,0.1-0.1,0.2-0.1h1c0.1,0,0.1,0,0.2,0.1c0,0,0.1,0.1,0.1,0.2v10.1c0,0.1,0,0.1-0.1,0.2
			c0,0-0.1,0.1-0.2,0.1h-1c-0.1,0-0.1,0-0.2-0.1c0,0-0.1-0.1-0.1-0.2v-4.4c0-0.1,0-0.1-0.1-0.1h-4.3c-0.1,0-0.1,0-0.1,0.1v4.4
			c0,0.1,0,0.1-0.1,0.2c0,0-0.1,0.1-0.2,0.1h-1c-0.1,0-0.1,0-0.2-0.1c0,0-0.1-0.1-0.1-0.2V8.3c0-0.1,0-0.1,0.1-0.2
			c0,0,0.1-0.1,0.2-0.1h1c0.1,0,0.1,0,0.2,0.1c0,0,0.1,0.1,0.1,0.2v4.3c0,0.1,0,0.1,0.1,0.1h4.3c0.1,0,0.1,0,0.1-0.1V8.3
			C40.8,8.3,40.8,8.2,40.8,8.2z"/>
		<path class="st1" d="M52.1,9.3c0,0-0.1,0.1-0.2,0.1h-5.3c-0.1,0-0.1,0-0.1,0.1v3.2c0,0.1,0,0.1,0.1,0.1h3.6c0.1,0,0.1,0,0.2,0.1
			c0,0,0.1,0.1,0.1,0.2v0.8c0,0.1,0,0.1-0.1,0.2c0,0-0.1,0.1-0.2,0.1h-3.6c-0.1,0-0.1,0-0.1,0.1v3.3c0,0.1,0,0.1,0.1,0.1h5.3
			c0.1,0,0.1,0,0.2,0.1c0,0,0.1,0.1,0.1,0.2v0.8c0,0.1,0,0.1-0.1,0.2c0,0-0.1,0.1-0.2,0.1h-6.6c-0.1,0-0.1,0-0.2-0.1
			c0,0-0.1-0.1-0.1-0.2V8.3c0-0.1,0-0.1,0.1-0.2c0,0,0.1-0.1,0.2-0.1h6.6c0.1,0,0.1,0,0.2,0.1c0,0,0.1,0.1,0.1,0.2v0.8
			C52.2,9.2,52.1,9.3,52.1,9.3z"/>
	</g>
	<g>
		<path class="st1" d="M6.7,51.1c-0.1-0.1-0.2-0.2-0.2-0.4V25.2c0-0.2,0.1-0.3,0.2-0.4c0.1-0.1,0.2-0.2,0.4-0.2h9
			c2.6,0,4.7,0.7,6.3,2.1c1.6,1.4,2.4,3.2,2.4,5.5v11.4c0,2.3-0.8,4.1-2.4,5.5c-1.6,1.4-3.7,2.1-6.3,2.1h-9
			C6.9,51.2,6.8,51.2,6.7,51.1z M10.3,48.1h5.9c1.5,0,2.6-0.4,3.5-1.3c0.9-0.9,1.3-2.1,1.3-3.6V32.8c0-1.5-0.4-2.7-1.3-3.6
			c-0.9-0.9-2.1-1.3-3.6-1.3h-5.9c-0.1,0-0.2,0.1-0.2,0.2v19.9C10.1,48,10.2,48.1,10.3,48.1z"/>
		<path class="st1" d="M34.3,50.6c-1.4-0.6-2.5-1.5-3.3-2.6c-0.8-1.1-1.2-2.4-1.2-3.9v-0.9c0-0.2,0.1-0.3,0.2-0.4
			c0.1-0.1,0.2-0.2,0.4-0.2h2.4c0.2,0,0.3,0.1,0.4,0.2c0.1,0.1,0.2,0.2,0.2,0.4V44c0,1.3,0.6,2.4,1.7,3.2c1.1,0.8,2.6,1.3,4.4,1.3
			c1.7,0,3.1-0.4,3.9-1.1c0.9-0.7,1.3-1.7,1.3-2.9c0-0.8-0.2-1.5-0.7-2c-0.5-0.6-1.1-1.1-2-1.5c-0.9-0.5-2.1-1-3.8-1.7
			c-1.8-0.7-3.3-1.4-4.4-1.9c-1.1-0.6-2-1.3-2.7-2.3c-0.7-0.9-1.1-2.1-1.1-3.6c0-2.2,0.8-3.9,2.3-5.1c1.6-1.2,3.7-1.9,6.3-1.9
			c1.9,0,3.5,0.3,4.9,0.9c1.4,0.6,2.5,1.5,3.3,2.7c0.8,1.1,1.2,2.5,1.2,3.9v0.6c0,0.2-0.1,0.3-0.2,0.4c-0.1,0.1-0.2,0.2-0.4,0.2
			h-2.5c-0.2,0-0.3,0-0.4-0.1c-0.1-0.1-0.2-0.2-0.2-0.4v-0.5c0-1.3-0.5-2.4-1.6-3.3c-1.1-0.9-2.5-1.3-4.3-1.3c-1.6,0-2.8,0.3-3.6,1
			c-0.9,0.6-1.3,1.6-1.3,2.8c0,0.8,0.2,1.5,0.6,2.1c0.4,0.5,1.1,1,1.9,1.4c0.8,0.4,2.1,1,3.9,1.6c1.8,0.7,3.3,1.4,4.4,2
			c1.1,0.6,2,1.4,2.8,2.4c0.7,1,1.1,2.2,1.1,3.6c0,1.4-0.4,2.7-1.1,3.8c-0.7,1.1-1.8,1.9-3.2,2.5c-1.4,0.6-3,0.9-4.9,0.9
			C37.4,51.6,35.7,51.2,34.3,50.6z"/>
		<path class="st1" d="M67.2,25.5c1.4,0.7,2.4,1.8,3.2,3.1c0.8,1.3,1.1,2.9,1.1,4.7v9.6c0,2.3-0.6,4.1-1.9,5.7
			c-1.3,1.5-3,2.5-5.1,2.8c-0.1,0.1-0.2,0.1-0.2,0.2v3.2c0,0.2-0.1,0.3-0.2,0.4c-0.1,0.1-0.2,0.2-0.4,0.2h-2.5
			c-0.2,0-0.3-0.1-0.4-0.2c-0.1-0.1-0.2-0.2-0.2-0.4v-3.2c0-0.1-0.1-0.2-0.2-0.2c-2.2-0.4-3.9-1.3-5.1-2.8c-1.3-1.5-1.9-3.4-1.9-5.7
			v-9.6c0-1.8,0.4-3.3,1.1-4.7c0.8-1.3,1.8-2.4,3.2-3.1c1.4-0.7,2.9-1.1,4.7-1.1C64.2,24.4,65.8,24.7,67.2,25.5z M67.9,33.1
			c0-1.7-0.5-3-1.5-4c-1-1-2.3-1.5-3.9-1.5c-1.6,0-2.9,0.5-3.9,1.5c-1,1-1.5,2.4-1.5,4v9.7c0,1.7,0.5,3,1.5,4c1,1,2.3,1.5,3.9,1.5
			c1.6,0,2.9-0.5,3.9-1.5c1-1,1.5-2.4,1.5-4V33.1z"/>
	</g>
	<g>
		<path class="st1" d="M12.2,59.8c0.5,0.3,0.8,0.6,1.1,1.1c0.3,0.5,0.4,1,0.4,1.6c0,0.6-0.1,1.1-0.4,1.6c-0.3,0.4-0.6,0.8-1.1,1
			c-0.5,0.2-1,0.4-1.6,0.4H8c0,0-0.1,0-0.1,0.1v4.1c0,0.1,0,0.1-0.1,0.2c0,0-0.1,0.1-0.2,0.1h-1c-0.1,0-0.1,0-0.2-0.1
			c0,0-0.1-0.1-0.1-0.2v-9.9c0-0.1,0-0.1,0.1-0.2c0,0,0.1-0.1,0.2-0.1h3.9C11.2,59.4,11.8,59.5,12.2,59.8z M11.8,63.7
			c0.3-0.3,0.5-0.8,0.5-1.3c0-0.5-0.2-1-0.5-1.3c-0.3-0.3-0.8-0.5-1.3-0.5H8c0,0-0.1,0-0.1,0.1v3.4c0,0,0,0.1,0.1,0.1h2.5
			C11,64.2,11.4,64,11.8,63.7z"/>
		<path class="st1" d="M21.9,69.6l-2-4.4c0,0,0-0.1-0.1-0.1h-2.1c0,0-0.1,0-0.1,0.1v4.3c0,0.1,0,0.1-0.1,0.2c0,0-0.1,0.1-0.2,0.1h-1
			c-0.1,0-0.1,0-0.2-0.1c0,0-0.1-0.1-0.1-0.2v-9.9c0-0.1,0-0.1,0.1-0.2c0,0,0.1-0.1,0.2-0.1h3.9c0.6,0,1.1,0.1,1.6,0.4
			c0.4,0.2,0.8,0.6,1,1c0.2,0.4,0.4,1,0.4,1.5c0,0.7-0.2,1.3-0.5,1.7c-0.4,0.5-0.9,0.8-1.5,1c0,0-0.1,0,0,0.1l2.1,4.4l0,0.1
			c0,0.1-0.1,0.1-0.2,0.1h-1C22,69.8,21.9,69.7,21.9,69.6z M17.6,60.7V64c0,0,0,0.1,0.1,0.1h2.5c0.5,0,0.9-0.2,1.2-0.5
			c0.3-0.3,0.5-0.7,0.5-1.2c0-0.5-0.2-0.9-0.5-1.3c-0.3-0.3-0.7-0.5-1.3-0.5L17.6,60.7C17.6,60.6,17.6,60.6,17.6,60.7z"/>
		<path class="st1" d="M27.5,69.4c-0.6-0.3-1-0.7-1.3-1.2c-0.3-0.5-0.5-1.2-0.5-1.9v-3.5c0-0.7,0.2-1.3,0.5-1.8
			c0.3-0.5,0.7-0.9,1.3-1.2c0.6-0.3,1.2-0.4,1.9-0.4c0.7,0,1.4,0.1,1.9,0.4c0.6,0.3,1,0.7,1.3,1.2c0.3,0.5,0.5,1.1,0.5,1.8v3.5
			c0,0.7-0.2,1.3-0.5,1.9c-0.3,0.5-0.7,1-1.3,1.2c-0.6,0.3-1.2,0.4-1.9,0.4C28.7,69.9,28,69.7,27.5,69.4z M31,68
			c0.4-0.4,0.6-1,0.6-1.6v-3.6c0-0.7-0.2-1.2-0.6-1.7c-0.4-0.4-1-0.6-1.6-0.6c-0.7,0-1.2,0.2-1.6,0.6c-0.4,0.4-0.6,1-0.6,1.7v3.6
			c0,0.7,0.2,1.2,0.6,1.6c0.4,0.4,0.9,0.6,1.6,0.6C30.1,68.7,30.6,68.5,31,68z"/>
		<path class="st1" d="M36.9,69.5c-0.5-0.3-0.9-0.6-1.2-1.1c-0.3-0.5-0.4-1-0.4-1.7v-0.6c0-0.1,0-0.1,0.1-0.2c0,0,0.1-0.1,0.2-0.1h1
			c0.1,0,0.1,0,0.2,0.1c0,0,0.1,0.1,0.1,0.2v0.6c0,0.6,0.2,1.1,0.6,1.4c0.4,0.4,0.9,0.5,1.5,0.5c0.6,0,1.2-0.2,1.5-0.5
			c0.4-0.4,0.6-0.8,0.6-1.4v-7c0-0.1,0-0.1,0.1-0.2c0,0,0.1-0.1,0.2-0.1h1c0.1,0,0.1,0,0.2,0.1c0,0,0.1,0.1,0.1,0.2v7
			c0,0.6-0.1,1.2-0.4,1.7c-0.3,0.5-0.7,0.9-1.2,1.1c-0.5,0.3-1.1,0.4-1.8,0.4S37.4,69.7,36.9,69.5z"/>
		<path class="st1" d="M52.3,60.6c0,0-0.1,0.1-0.2,0.1H47c0,0-0.1,0-0.1,0.1v3.1c0,0,0,0.1,0.1,0.1h3.5c0.1,0,0.1,0,0.2,0.1
			c0,0,0.1,0.1,0.1,0.2v0.8c0,0.1,0,0.1-0.1,0.2c0,0-0.1,0.1-0.2,0.1H47c0,0-0.1,0-0.1,0.1v3.2c0,0,0,0.1,0.1,0.1h5.2
			c0.1,0,0.1,0,0.2,0.1c0,0,0.1,0.1,0.1,0.2v0.8c0,0.1,0,0.1-0.1,0.2c0,0-0.1,0.1-0.2,0.1h-6.4c-0.1,0-0.1,0-0.2-0.1
			c0,0-0.1-0.1-0.1-0.2v-9.9c0-0.1,0-0.1,0.1-0.2c0,0,0.1-0.1,0.2-0.1h6.4c0.1,0,0.1,0,0.2,0.1c0,0,0.1,0.1,0.1,0.2v0.8
			C52.4,60.5,52.3,60.5,52.3,60.6z"/>
		<path class="st1" d="M56.6,69.5c-0.5-0.3-1-0.7-1.3-1.2c-0.3-0.5-0.5-1.1-0.5-1.8v-3.8c0-0.7,0.2-1.3,0.5-1.8
			c0.3-0.5,0.7-0.9,1.3-1.2c0.5-0.3,1.2-0.4,1.9-0.4c0.7,0,1.3,0.1,1.9,0.4c0.5,0.3,1,0.7,1.3,1.1c0.3,0.5,0.5,1.1,0.5,1.7
			c0,0.1-0.1,0.2-0.2,0.2l-1,0.1h-0.1c0,0-0.1,0-0.1,0c0,0,0,0,0-0.1v-0.1c0-0.6-0.2-1.1-0.6-1.5c-0.4-0.4-0.9-0.6-1.6-0.6
			c-0.7,0-1.2,0.2-1.6,0.6c-0.4,0.4-0.6,0.9-0.6,1.5v3.9c0,0.6,0.2,1.1,0.6,1.5c0.4,0.4,0.9,0.6,1.6,0.6c0.7,0,1.2-0.2,1.6-0.6
			c0.4-0.4,0.6-0.9,0.6-1.5c0-0.1,0-0.1,0.1-0.1c0,0,0.1,0,0.2,0l1,0.1c0.1,0,0.2,0,0.2,0.1v0.1c0,0.7-0.2,1.2-0.5,1.7
			c-0.3,0.5-0.7,0.9-1.3,1.2c-0.5,0.3-1.2,0.4-1.9,0.4C57.7,69.9,57.1,69.7,56.6,69.5z"/>
		<path class="st1" d="M71.4,59.5c0,0,0.1,0.1,0.1,0.2v0.8c0,0.1,0,0.1-0.1,0.2c0,0-0.1,0.1-0.2,0.1h-2.7c0,0-0.1,0-0.1,0.1v8.8
			c0,0.1,0,0.1-0.1,0.2c0,0-0.1,0.1-0.2,0.1h-1c-0.1,0-0.1,0-0.2-0.1c0,0-0.1-0.1-0.1-0.2v-8.8c0,0,0-0.1-0.1-0.1h-2.6
			c-0.1,0-0.1,0-0.2-0.1c0,0-0.1-0.1-0.1-0.2v-0.8c0-0.1,0-0.1,0.1-0.2c0,0,0.1-0.1,0.2-0.1h6.9C71.3,59.4,71.4,59.4,71.4,59.5z"/>
	</g>
</g>
</svg>
